<svg id="Capa_1" data-name="Capa 1" xmlns="http://www.w3.org/2000/svg" width="105" height="80" viewBox="0 0 105 80"><defs><style>.cls-1{fill:#161928;}.cls-2,.cls-3{fill:#53b94a;}.cls-3{font-size:12px;font-family:Helvetica;}.cls-4{letter-spacing:0.01em;}.cls-5{letter-spacing:0.05em;}</style></defs><title>ECOLLECTseguros para ti</title><path class="cls-1" d="M28.88,34.26c-4.29,0-6.22,3.4-6.22,6.77,0,3.93,2.72,6.47,6.92,6.47A12.05,12.05,0,0,0,32,47.28a10,10,0,0,0,1.78-.54l-.55-2.55a9.45,9.45,0,0,1-1.18.31,8.86,8.86,0,0,1-1.77.18c-2.26,0-3.63-.83-3.88-2.34a.24.24,0,0,1,.06-.2.23.23,0,0,1,.19-.09h7.9a9.16,9.16,0,0,0,.12-1.48C34.68,39.09,34.27,34.26,28.88,34.26Zm2,5.34H26.57a.25.25,0,0,1-.25-.25,2.45,2.45,0,0,1,2.49-2.52,2.38,2.38,0,0,1,2.34,2.52A.25.25,0,0,1,30.9,39.6Z"/><path class="cls-1" d="M74.62,42.05h7.9a9,9,0,0,0,.13-1.48c0-1.48-.42-6.31-5.8-6.31-4.3,0-6.22,3.4-6.22,6.77,0,3.93,2.71,6.47,6.91,6.47A12,12,0,0,0,80,47.28a10.14,10.14,0,0,0,1.79-.54l-.55-2.55A9.92,9.92,0,0,1,80,44.5a9,9,0,0,1-1.78.18c-2.25,0-3.63-.83-3.87-2.34a.28.28,0,0,1,.05-.2A.25.25,0,0,1,74.62,42.05Zm-.33-2.7a2.45,2.45,0,0,1,2.49-2.52,2.37,2.37,0,0,1,2.33,2.52.25.25,0,0,1-.24.25H74.54A.25.25,0,0,1,74.29,39.35Z"/><rect class="cls-1" x="59.85" y="29.9" width="3.9" height="17.32"/><rect class="cls-1" x="65.53" y="29.9" width="3.9" height="17.32"/><path class="cls-1" d="M100.7,47.49a12.11,12.11,0,0,0,1.8-.15c.46-.07.83-.14,1.06-.2,0-.38,0-1.37,0-3a9.85,9.85,0,0,1-1.26.16,2,2,0,0,1-1.43-.51,2.23,2.23,0,0,1-.53-1.61V37.58a.25.25,0,0,1,.24-.25h2.6V34.56h-2.6a.24.24,0,0,1-.24-.24V30.53L96.5,31v3.36a.25.25,0,0,1-.25.24H94.81v2.77h1.44a.25.25,0,0,1,.25.25V43C96.5,46,97.91,47.49,100.7,47.49Z"/><path class="cls-1" d="M52.05,34.26a6.62,6.62,0,1,0,6.63,6.62A6.63,6.63,0,0,0,52.05,34.26Zm0,10.16a3.54,3.54,0,1,1,3.55-3.54A3.55,3.55,0,0,1,52.05,44.42Z"/><path class="cls-1" d="M90.28,44.42a3.54,3.54,0,0,1,0-7.08,3.44,3.44,0,0,1,2,.6L94,35.42a6.62,6.62,0,1,0-.15,11L92.1,43.91A3.52,3.52,0,0,1,90.28,44.42Z"/><path class="cls-1" d="M42.27,44.42a3.54,3.54,0,1,1,0-7.08,3.46,3.46,0,0,1,2,.6L46,35.42a6.55,6.55,0,0,0-3.73-1.16,6.62,6.62,0,1,0,3.59,12.18l-1.78-2.53A3.51,3.51,0,0,1,42.27,44.42Z"/><path class="cls-2" d="M15.69,41.5A5.63,5.63,0,1,1,10,35.76v-3a8.67,8.67,0,1,0,8.81,8.74Z"/><path class="cls-2" d="M12.22,41.26H10.58c-.18,0-.25,0-.25-.21V39.37H8.22v3a1,1,0,0,0,.88,1h3.12Z"/><path class="cls-1" d="M15.51,36.32v4h3.14v-6.1A1.21,1.21,0,0,0,17.37,33H11.12v2.94h3.94A.39.39,0,0,1,15.51,36.32Z"/><path class="cls-2" d="M89.15,59.08a.82.82,0,0,0,.62-.84,8.76,8.76,0,0,1,0-1.85c.34-2,2.18-3.22,4.5-3.06A3.89,3.89,0,0,1,98,57c0,.45,0,.9,0,1.36a.78.78,0,0,0,.58.74c.82.23,1,.57,1,1.57a15,15,0,0,1-.2,3.15C98.67,66.38,96,68,93,67.63a5.34,5.34,0,0,1-4.86-5c0-.72,0-1.43,0-2.15S88.39,59.27,89.15,59.08ZM96.1,59a.54.54,0,0,0,.54-.53c0-.55,0-1.07,0-1.59a2.64,2.64,0,0,0-2.5-2.4,2.69,2.69,0,0,0-2.93,1.72,8.1,8.1,0,0,0-.1,2.26.56.56,0,0,0,.55.53Zm-1.21,4a1,1,0,0,0-.75-1.43,1.19,1.19,0,0,0-1.29.44A1,1,0,0,0,93,63.28a1,1,0,0,1,.37.94,1,1,0,0,0,0,.48h0a.56.56,0,0,0,.86,0l.06-.07c.06-.07,0-.21,0-.32a1.1,1.1,0,0,1,.43-1.14A.51.51,0,0,0,94.89,63Z"/><text class="cls-3" transform="translate(6.5 63.73)"><tspan class="cls-4">Seguro pa</tspan><tspan x="56.45" y="0">r</tspan><tspan class="cls-4" x="60.44" y="0">a </tspan><tspan class="cls-5" x="70.69" y="0">ti</tspan></text></svg>